<svg width="398" height="375" viewBox="0 0 398 375" fill="none" xmlns="http://www.w3.org/2000/svg">
<circle cx="177" cy="197" r="140" fill="#787878"/>
<path d="M194.073 342.667C186.5 356.6 166.5 356.6 158.928 342.667L39.7065 123.3C32.4637 109.974 42.1112 93.75 57.279 93.75L295.721 93.75C310.889 93.75 320.536 109.974 313.294 123.3L194.073 342.667Z" fill="url(#paint0_linear_373_100)"/>
<path d="M181 239.2C183.533 242.4 184.8 247.133 184.8 253.4C184.8 259.533 182.4 264.533 177.6 268.4C172.933 272.133 166.467 274 158.2 274C153.4 274 147.267 273.467 139.8 272.4C125.133 270.133 115.667 269 111.4 269C107.267 269 104.333 269.133 102.6 269.4C100.867 269.533 98.6 269.733 95.8 270L120 138H163.8L143.8 248C145.533 248.267 147.2 248.4 148.8 248.4H153.8C165 248.4 174.067 245.333 181 239.2ZM194.002 146C197.868 138 205.135 134 215.802 134C226.602 134 234.468 137.133 239.402 143.4C244.468 149.533 247.002 159.733 247.002 174V245.4L295.602 138.2H319.402L257.202 270H210.402L204.402 174C204.002 166.933 202.802 161 200.802 156.2C198.935 151.4 196.668 148 194.002 146Z" fill="url(#paint1_linear_373_100)"/>
<defs>
<linearGradient id="paint0_linear_373_100" x1="55.5" y1="110.5" x2="230.5" y2="257" gradientUnits="userSpaceOnUse">
<stop stop-color="#9F57FF"/>
<stop offset="1" stop-color="#603499"/>
</linearGradient>
<linearGradient id="paint1_linear_373_100" x1="170.5" y1="193" x2="303" y2="319.5" gradientUnits="userSpaceOnUse">
<stop stop-color="white"/>
<stop offset="1" stop-color="#999999"/>
</linearGradient>
</defs>
</svg>
